<svg width="403" height="353" viewBox="0 0 403 353" fill="none" xmlns="http://www.w3.org/2000/svg">
<path d="M147.436 353H255.242L201.209 244.246L147.436 353Z" fill="#005B57" fill-opacity="0.85"/>
<path d="M161.112 163.543L255.242 353H335.242L201.016 82.84L161.112 163.543Z" fill="#00403C" fill-opacity="0.25"/>
<path d="M241.112 163.543L201.016 82.84L67.4355 353H147.436L241.112 163.543Z" fill="#00403C" fill-opacity="0.25"/>
<path d="M335.242 353L201.016 82.84L181.064 123.192L295.242 353H335.242Z" fill="#00403C" fill-opacity="0.5"/>
<path d="M221.064 123.192L201.016 82.84L67.4355 353H107.436L221.064 123.192Z" fill="#00403C" fill-opacity="0.5"/>
<path d="M201.016 82.84L335.242 353H403L228.765 0H173.913L0 353H67.4355L201.016 82.84Z" fill="#00403C"/>
<circle cx="201.5" cy="204.5" r="4.5" fill="#005D57"/>
<circle cx="161.5" cy="204.5" r="4.5" fill="#005D57"/>
<circle cx="241.5" cy="204.5" r="4.5" fill="#005D57"/>
</svg>
