<svg viewBox="0 0 49 32" fill="none" xmlns="http://www.w3.org/2000/svg">
<path fill-rule="evenodd" clip-rule="evenodd" d="M48.4209 12.6496C48.5088 12.4611 48.482 12.3338 48.2464 12.224C48.0814 12.147 44.6744 11.7632 44.2896 11.7272C44.1027 11.6974 43.9189 11.7839 43.7839 11.9504C43.4353 12.3903 36.9931 20.5458 36.9162 20.7107C36.8502 20.8521 36.877 20.9794 36.9948 21.0343C37.1833 21.1222 39.2629 21.0305 39.4514 21.1184C39.5928 21.1843 39.6415 21.2644 39.5866 21.3822C39.4987 21.5707 34.1977 27.6478 33.9748 28.0029C33.8068 28.2401 33.7534 28.416 33.9655 28.5149C34.1776 28.6138 34.4053 28.4331 34.5529 28.3011C35.8562 27.0442 44.4554 19.9232 44.5323 19.7582C44.5872 19.6404 44.5605 19.5132 44.4427 19.4582C44.207 19.3484 42.0865 19.2202 41.9216 19.1433C41.8273 19.0993 41.788 18.9375 41.8429 18.8197C41.9418 18.6076 48.3 12.9088 48.4209 12.6496Z" fill="black" stroke="black" stroke-width="0.5"/>
<path fill-rule="evenodd" clip-rule="evenodd" d="M28.6473 1.42544C28.5973 1.14182 28.466 1.01876 28.1114 1.08127C27.8633 1.12503 23.6942 3.39548 23.2291 3.66026C22.9934 3.77493 22.8537 4.0189 22.8328 4.31503C22.7868 5.0908 21.9569 19.4572 22.0006 19.7053C22.0381 19.9181 22.1695 20.0411 22.3468 20.0099C22.6304 19.9599 24.9163 18.2042 25.1999 18.1542C25.4126 18.1167 25.5315 18.1689 25.5627 18.3461C25.6127 18.6298 24.4267 29.7324 24.4558 30.3122C24.4537 30.7146 24.5329 30.9566 24.8519 30.9003C25.171 30.844 25.2858 30.4582 25.3484 30.1913C25.8284 27.7306 29.9262 12.8245 29.8825 12.5764C29.8512 12.3991 29.7198 12.2761 29.5426 12.3073C29.188 12.3698 26.6811 13.9085 26.433 13.9523C26.2912 13.9773 26.1181 13.825 26.0868 13.6478C26.0306 13.3287 28.7161 1.81543 28.6473 1.42544Z" fill="black" stroke="black" stroke-width="0.7"/>
<path fill-rule="evenodd" clip-rule="evenodd" d="M5.75138 9.60057C5.59204 9.46687 5.46223 9.45977 5.29511 9.65894C5.17812 9.79836 3.92558 12.9899 3.79119 13.3523C3.71404 13.5252 3.74998 13.725 3.87589 13.8986C4.21059 14.3491 10.4208 22.6827 10.5602 22.7996C10.6797 22.8999 10.8095 22.907 10.8931 22.8074C11.0268 22.6481 11.4765 20.6156 11.6102 20.4563C11.7104 20.3368 11.8004 20.3104 11.9 20.394C12.0593 20.5277 16.5574 27.2209 16.8426 27.5281C17.0283 27.7518 17.1844 27.8489 17.3348 27.6696C17.4852 27.4904 17.3696 27.2237 17.2803 27.0469C16.4035 25.4627 11.7508 15.3135 11.6114 15.1965C11.5118 15.1129 11.382 15.1058 11.2984 15.2054C11.1313 15.4046 10.4586 17.4197 10.3417 17.5591C10.2748 17.6388 10.1084 17.6349 10.0088 17.5513C9.82953 17.4009 5.97046 9.7844 5.75138 9.60057Z" fill="black" stroke="black" stroke-width="0.5"/>
</svg>
