<svg width="205" height="205" viewBox="0 0 205 205" fill="none" xmlns="http://www.w3.org/2000/svg">
  <circle cx="102.5" cy="102.5" r="102.5" fill="#005579"/>
  <path d="M192 102C192 151.706 151.706 192 102 192V162V132V102H132H162H192Z" fill="#007DAC"/>
  <path d="M192 102C192 52.2944 151.706 12 102 12V42V72V102H132H162H192Z" fill="#006691"/>
  <path d="M12 102C12 151.706 52.2944 192 102 192V162V132V102H72H42H12Z" fill="#0099CC"/>
  <path d="M12 102C12 52.2944 52.2944 12 102 12V42V72V102H72H42H12Z" fill="#00B3E8"/>
  <path d="M192 102H193V101H192V102ZM102 192H101V193H102V192ZM102 102V101H101V102H102ZM191 102C191 151.153 151.153 191 102 191V193C152.258 193 193 152.258 193 102H191ZM161 102C161 134.585 134.585 161 102 161V163C135.689 163 163 135.689 163 102H161ZM131 102C131 118.016 118.016 131 102 131V133C119.121 133 133 119.121 133 102H131ZM192 101H162V103H192V101ZM192 101H132V103H192V101ZM162 101H132V103H162V101ZM103 192V162H101V192H103ZM103 192V132H101V192H103ZM103 162V132H101V162H103ZM132 101H102V103H132V101ZM101 102V132H103V102H101Z" fill="#009787"/>
  <path d="M192 102H193V103H192V102ZM102 12H101V11H102V12ZM102 102V103H101V102H102ZM191 102C191 52.8467 151.153 13 102 13V11C152.258 11 193 51.7421 193 102H191ZM161 102C161 69.4152 134.585 43 102 43V41C135.689 41 163 68.3106 163 102H161ZM131 102C131 85.9837 118.016 73 102 73V71C119.121 71 133 84.8792 133 102H131ZM103 12V42H101V12H103ZM103 12V72H101V12H103ZM103 42V72H101V42H103ZM192 103H162V101H192V103ZM192 103H132V101H192V103ZM162 103H132V101H162V103ZM102 101H132V103H102V101ZM101 102V72H103V102H101Z" fill="#009787"/>
  <path d="M12 102H11V101H12V102ZM102 192H103V193H102V192ZM102 102V101H103V102H102ZM13 102C13 151.153 52.8467 191 102 191V193C51.7421 193 11 152.258 11 102H13ZM43 102C43 134.585 69.4152 161 102 161V163C68.3106 163 41 135.689 41 102H43ZM73 102C73 118.016 85.9837 131 102 131V133C84.8792 133 71 119.121 71 102H73ZM12 101H42V103H12V101ZM12 101H72V103H12V101ZM42 101H72V103H42V101ZM101 192V162H103V192H101ZM101 192V132H103V192H101ZM101 162V132H103V162H101ZM72 101H102V103H72V101ZM103 102V132H101V102H103Z" fill="#00D0BE"/>
  <path d="M12 102H11V103H12V102ZM102 12H103V11H102V12ZM102 102V103H103V102H102ZM13 102C13 52.8467 52.8467 13 102 13V11C51.7421 11 11 51.7421 11 102H13ZM43 102C43 69.4152 69.4152 43 102 43V41C68.3106 41 41 68.3106 41 102H43ZM73 102C73 85.9837 85.9837 73 102 73V71C84.8792 71 71 84.8792 71 102H73ZM12 103H42V101H12V103ZM12 103H72V101H12V103ZM42 103H72V101H42V103ZM101 12V42H103V12H101ZM101 12V72H103V12H101ZM101 42V72H103V42H101ZM101 72V102H103V72H101ZM102 101H72V103H102V101Z" fill="#00D0BE"/>
  <circle cx="125" cy="144" r="6" fill="#00AB96"/>
  <circle cx="131.5" cy="36.5" r="4.5" fill="#00C798"/>
  <circle cx="45.5" cy="124.5" r="5.5" fill="#008292"/>
</svg>
