<svg width="95px" height="108px" viewBox="0 0 95 108" version="1.1" xmlns="http://www.w3.org/2000/svg">
  <path fill="#000000" d="M47.5762086,10.7949793 L10.353,32.2751398 L10.353,75.27118 L47.5762081,96.7690099 L84.789,75.2720948 L84.789,32.2742265 L47.5762086,10.7949793 Z M50.12,0.717 L92.244,25.031 C93.819,25.94 94.789,27.619 94.789,29.437 L94.789,78.105 C94.789,79.923 93.82,81.603 92.246,82.513 L50.122,106.847 C48.546,107.756 46.606,107.756 45.031,106.847 L2.897,82.513 C1.323,81.602 0.353,79.923 0.353,78.105 L0.353,29.439 C0.353,27.619 1.323,25.94 2.899,25.031 L45.033,0.717 C46.606,-0.192 48.546,-0.192 50.12,0.717 Z" />
</svg>
