<?xml version="1.0" encoding="UTF-8"?>
<svg width="56px" height="56px" viewBox="0 0 56 56" version="1.1" xmlns="http://www.w3.org/2000/svg" xmlns:xlink="http://www.w3.org/1999/xlink">
    <!-- Generator: Sketch 47.1 (45422) - http://www.bohemiancoding.com/sketch -->
    <title>Shape</title>
    <desc>Created with Sketch.</desc>
    <defs/>
    <g id="Page-1" stroke="none" stroke-width="1" fill="none" fill-rule="evenodd">
        <g id="noun_692994_cc" fill="#000000">
            <g id="Group" transform="translate(28.000000, 28.000000) scale(-1, 1) rotate(-180.000000) translate(-28.000000, -28.000000) ">
                <g id="Shape">
                    <g>
                        <path d="M4.503,3.654 L3.867,4.29 C0.29,7.867 0.289,13.671 3.866,17.247 L13.271,26.651 L3.44,36.483 C-0.136,40.059 -0.137,45.864 3.439,49.44 L4.076,50.076 C7.651,53.651 13.457,53.653 17.033,50.076 L25.074,42.035 C25.523,45.165 26.953,48.184 29.362,50.59 C33.389,54.62 39.124,55.901 44.234,54.45 C45.608,54.06 46.057,52.331 45.047,51.321 L37.816,44.09 L39.186,38.973 L44.303,37.603 L51.534,44.834 C52.544,45.844 54.273,45.395 54.663,44.021 C56.114,38.91 54.828,33.175 50.803,29.149 C47.66,26.006 43.478,24.532 39.367,24.725 L38.612,24.805 L37.173,23.366 L44.489,16.052 L46.408,15.494 C46.81,15.377 47.161,15.129 47.405,14.79 L51.77,8.737 C52.308,7.991 52.225,6.965 51.575,6.315 L47.2,1.941 C46.55,1.291 45.524,1.208 44.778,1.746 L38.726,6.11 C38.387,6.354 38.139,6.705 38.022,7.107 L37.464,9.026 L30.147,16.34 L17.46,3.653 C13.884,0.076 8.079,0.078 4.503,3.654 Z M14.809,6.304 L27.496,18.991 L25.325,21.162 L25.252,21.128 C21.927,19.982 18.562,21.359 16.152,23.771 L15.922,24 L6.517,14.596 C4.406,12.484 4.405,9.054 6.518,6.941 L7.154,6.305 C9.266,4.193 12.697,4.193 14.809,6.304 Z M45.677,5.72 L47.795,7.838 L44.741,12.074 L42.98,12.586 C42.677,12.674 42.401,12.838 42.178,13.061 L28.785,26.452 C28.185,27.051 28.063,27.98 28.486,28.714 C29.529,30.523 29.097,32.708 27.093,34.713 L14.382,47.425 C12.27,49.536 8.838,49.536 6.727,47.423 L6.09,46.787 C3.98,44.677 3.979,41.246 6.091,39.134 L18.803,26.422 C20.808,24.418 22.991,23.985 24.799,25.028 C25.534,25.451 26.462,25.329 27.061,24.729 L40.455,11.337 C40.678,11.114 40.842,10.838 40.93,10.535 L41.442,8.774 L45.677,5.72 Z M9.797,11.325 C9.797,12.212 10.518,12.933 11.405,12.933 C12.292,12.933 13.013,12.212 13.013,11.325 C13.013,10.438 12.292,9.717 11.405,9.717 C10.518,9.717 9.797,10.438 9.797,11.325 Z M34.522,26.017 L36.592,28.087 C37.019,28.515 37.626,28.71 38.222,28.612 C41.729,28.034 45.45,29.099 48.152,31.8 C50.042,33.691 51.132,36.086 51.415,38.557 L51.46,39.458 L46.189,34.186 C45.716,33.712 45.025,33.527 44.378,33.7 L37.17,35.631 C36.523,35.805 36.018,36.31 35.844,36.957 L33.913,44.165 C33.74,44.812 33.925,45.503 34.399,45.976 L39.671,51.248 L38.77,51.203 C36.299,50.92 33.904,49.831 32.013,47.939 C29.395,45.322 28.312,41.747 28.775,38.334 L29.746,37.364 C32.155,34.951 33.533,31.585 32.385,28.26 L32.352,28.187 L34.522,26.017 Z"/>
                    </g>
                </g>
            </g>
        </g>
    </g>
</svg>