<svg viewBox="0 0 593 593" version="1.1" xmlns="http://www.w3.org/2000/svg" xmlns:xlink="http://www.w3.org/1999/xlink">
  <g fill="#36b4a3">
    <path d="M562.051,296.975 C562.051,150.053478 442.946936,30.95 296.025,30.95 C149.103271,30.95 30,150.053271 30,296.975 C30,443.896082 149.103625,563 296.025,563 C442.946582,563 562.051,443.895875 562.051,296.975 Z M592.051,296.975 C592.051,460.464434 459.515108,593 296.025,593 C132.535066,593 0,460.464608 0,296.975 C0,133.484729 132.534729,0.95 296.025,0.95 C459.515445,0.95 592.051,133.484903 592.051,296.975 Z" />
    <path d="M401.063,290.655 C421.246,280.674 435.791,279.698 453.166,279.573 C453.166,279.573 428.219,249.969 396.564,252.127 C396.564,252.127 392.848,233.749 389.822,222.08 C386.6,209.651 381.013,195.165 381.013,195.165 C381.645,195.154 417.832,188.13 417.815,187.928 C417.1,179.401 372.1,178.776 369.975,169.276 C369.975,169.276 394.882,172.356 398.723,167.235 C409.223,153.235 409.473,112.389 398.723,98.89 C388.439,85.976 346.29,106.515 346.29,106.515 C322.225,71.775 293.907,66.254 259.642,67.693 C172.308,71.36 137.308,183.782 138.245,237.87 C143.745,236.453 149.642,235.36 149.642,235.36 C149.642,235.36 149.083,398.17 46.694,439.307 C46.694,439.307 103.013,519.608 156.542,547.914 C255.499,600.244 359.101,577.067 359.101,577.067 C373.732,556.53 416.708,473.709 409.065,332.672 C409.065,332.672 434.481,323.389 441.731,314.672 C441.731,314.672 413.677,313.713 404.032,306.03 L401.063,290.655" />
  </g>
</svg>
