<?xml version="1.0" encoding="UTF-8"?>
<svg width="90px" height="82px" viewBox="0 0 90 82" version="1.1" xmlns="http://www.w3.org/2000/svg" xmlns:xlink="http://www.w3.org/1999/xlink">
    <!-- Generator: Sketch 48.2 (47327) - http://www.bohemiancoding.com/sketch -->
    <title>noun_44841_cc</title>
    <desc>Created with Sketch.</desc>
    <defs></defs>
    <g id="Page-1" stroke="none" stroke-width="1" fill="none" fill-rule="evenodd">
        <g id="noun_44841_cc" fill="#000000" fill-rule="nonzero">
            <path d="M24.086397,0.59469 C24.080397,0.59569 24.073897,0.59769 24.067797,0.59969 C24.027497,0.60669 23.989497,0.62669 23.960577,0.65569 L22.547987,1.97037 L21.135397,3.28506 L19.722817,4.59974 C19.699817,4.62164 19.682017,4.64904 19.671517,4.67904 L18.482707,7.90981 C18.472307,7.93961 18.469107,7.97181 18.473707,8.00301 L18.697487,9.91909 L18.921257,11.83518 L19.037807,12.8142 L16.263917,20.36664 C13.415167,24.45772 11.457967,29.08417 10.506347,33.94706 L9.774407,29.7093 L10.077437,28.72562 L10.646207,26.87947 L11.205647,25.02865 C11.214647,24.99965 11.219447,24.97015 11.214647,24.94005 L10.622577,21.54611 C10.618577,21.51471 10.608177,21.48351 10.589977,21.45751 L9.433807,19.91438 L8.282287,18.3666 L7.126117,16.81881 C7.081617,16.75651 7.000497,16.72711 6.925647,16.73951 C6.900747,16.74351 6.877247,16.74951 6.855747,16.76281 C6.850747,16.76681 6.845747,16.77181 6.841747,16.77681 C6.810447,16.80321 6.787047,16.83981 6.776447,16.87937 L6.212347,18.72553 L5.643587,20.57168 L5.079477,22.41318 C5.070477,22.44368 5.068977,22.47988 5.074477,22.51108 L5.661897,25.90035 C5.667897,25.93135 5.679897,25.96405 5.699197,25.98895 L6.850717,27.53208 L8.002227,29.07986 L8.594297,29.8724 L9.969597,37.81645 C9.885497,38.81442 9.839057,39.82022 9.839057,40.82812 C9.839057,44.88942 10.521027,48.79182 11.769127,52.43182 L9.018547,49.13582 L8.785447,48.12882 L8.356537,46.25002 L7.918307,44.36662 C7.911307,44.33662 7.899907,44.30662 7.881007,44.28262 L5.671207,41.63922 C5.651707,41.61422 5.625407,41.59622 5.596607,41.58322 L3.8203869,40.81862 L2.0488229,40.05872 L0.2819239,39.29422 C0.1890039,39.25222 0.0630979,39.29422 0.0161899,39.38322 C0.0140899,39.39322 0.0129899,39.39522 0.0114899,39.40222 C-0.0024601,39.44022 -0.0037901,39.48422 0.0067899,39.52342 L0.4403559,41.40222 L0.8692609,43.28562 L1.3028269,45.16442 C1.3102269,45.19542 1.3240969,45.22442 1.3447869,45.24842 L3.5499169,47.89642 C3.5705169,47.92042 3.5953169,47.93542 3.6245169,47.94742 L5.396077,48.71202 L7.167637,49.47662 L8.076727,49.86352 L13.237567,56.05462 C15.367137,60.57472 18.412577,64.58022 22.137327,67.82622 L18.076727,66.33442 L17.372767,65.57912 L16.058077,64.16652 L14.738737,62.75392 C14.718137,62.73192 14.692437,62.71392 14.664137,62.70292 L11.428707,61.51882 C11.399307,61.50682 11.367107,61.50182 11.335507,61.50482 L9.419427,61.73322 L7.503347,61.95702 L5.587267,62.18082 C5.485647,62.19082 5.400727,62.28862 5.405447,62.39062 C5.406447,62.40062 5.408447,62.40262 5.410447,62.40962 C5.417447,62.44962 5.437447,62.48762 5.466347,62.51682 L6.781027,63.92942 L8.095717,65.34202 L9.410397,66.75462 C9.432297,66.77762 9.459697,66.79562 9.489697,66.80562 L12.720467,67.99442 C12.750267,68.00442 12.782467,68.00842 12.813667,68.00442 L14.729747,67.78062 L16.645837,67.55682 L17.624857,67.44032 L25.223917,70.23282 C29.222327,73.01562 33.815627,75.00212 38.771697,75.96712 L34.519947,76.70372 L33.531607,76.40062 L31.685457,75.83652 L29.839297,75.27242 C29.810297,75.26242 29.780797,75.25842 29.750697,75.26242 L26.356767,75.85452 C26.325367,75.85452 26.294167,75.87352 26.268167,75.89152 L24.720377,77.04772 L23.172597,78.19922 L21.624807,79.35072 C21.541707,79.40972 21.518447,79.53512 21.573507,79.62112 C21.577507,79.63112 21.582507,79.63112 21.587507,79.63512 C21.613907,79.66612 21.650507,79.69012 21.690067,79.70012 L23.536227,80.26422 L25.377717,80.83302 L27.223867,81.39712 C27.254367,81.40712 27.285867,81.40812 27.317067,81.40712 L30.711007,80.82432 C30.742007,80.81432 30.770007,80.80132 30.794907,80.78232 L32.342707,79.63082 L33.890487,78.47932 L34.678367,77.89192 L42.650387,76.51192 C43.215587,76.55892 43.783967,76.58992 44.356687,76.60992 L44.356687,76.63292 C44.571227,76.63292 44.786287,76.62292 45.000037,76.62292 C45.213797,76.62292 45.428847,76.63292 45.643397,76.63292 L45.643397,76.60992 C46.216117,76.58992 46.784487,76.55892 47.349687,76.51192 L55.321707,77.89192 L56.109587,78.47932 L57.657377,79.63082 L59.205157,80.78232 C59.230057,80.80132 59.258057,80.81832 59.289057,80.82432 L62.682997,81.40712 C62.714197,81.41712 62.745797,81.40712 62.776197,81.39712 L64.622347,80.83302 L66.463837,80.26422 L68.309987,79.70012 C68.349587,79.68912 68.386187,79.66612 68.412557,79.63512 C68.417557,79.63512 68.422557,79.62512 68.426557,79.62112 C68.481657,79.53512 68.458357,79.41002 68.375257,79.35072 L66.827477,78.19922 L65.279687,77.04772 L63.731907,75.89152 C63.705907,75.87352 63.674707,75.85852 63.643307,75.85452 L60.249377,75.26242 C60.219277,75.26242 60.189777,75.26262 60.160777,75.27242 L58.314627,75.83652 L56.468477,76.40062 L55.480127,76.70362 L51.228387,75.96712 C56.184457,75.00212 60.777747,73.01562 64.776157,70.23282 L72.375227,67.44022 L73.354247,67.55682 L75.270327,67.78062 L77.186407,68.00442 C77.217607,68.00442 77.249907,68.00542 77.279607,67.99442 L80.510377,66.80552 C80.540377,66.79552 80.567777,66.77752 80.589677,66.75452 L81.904357,65.34202 L83.219037,63.92942 L84.533727,62.51682 C84.562727,62.48782 84.582527,62.44982 84.589627,62.40962 C84.591627,62.39962 84.592627,62.39762 84.594627,62.39062 C84.599627,62.28862 84.514427,62.19062 84.412807,62.18082 L82.496727,61.95702 L80.580637,61.73322 L78.664567,61.50482 C78.632967,61.50482 78.600767,61.50482 78.571367,61.51882 L75.335937,62.70292 C75.307637,62.71392 75.281937,62.73192 75.261337,62.75392 L73.941987,64.16652 L72.627307,65.57912 L71.923337,66.33432 L67.862737,67.82622 C71.587497,64.58022 74.632927,60.57472 76.762497,56.05462 L81.923337,49.86352 L82.832427,49.47652 L84.603987,48.71202 L86.375547,47.94742 C86.404747,47.93542 86.429547,47.92042 86.450147,47.89642 L88.655277,45.24842 C88.675977,45.22442 88.689777,45.19542 88.697277,45.16442 L89.130837,43.28562 L89.559747,41.40212 L89.993307,39.52342 C90.003907,39.48442 90.002307,39.44042 89.988307,39.40212 C89.987307,39.39212 89.985307,39.38912 89.983307,39.38312 C89.936407,39.29212 89.810497,39.25232 89.717577,39.29412 L87.950677,40.05872 L86.179117,40.81862 L84.402897,41.58322 C84.374097,41.59622 84.347797,41.61422 84.328297,41.63922 L82.118507,44.28252 C82.099607,44.30652 82.087807,44.33652 82.081207,44.36652 L81.642977,46.25002 L81.214077,48.12882 L80.980977,49.13582 L78.230397,52.43182 C79.478487,48.79182 80.160467,44.88932 80.160467,40.82812 C80.160467,39.82022 80.114067,38.81442 80.029927,37.81644 L81.405217,29.87239 L81.997287,29.07985 L83.148807,27.53207 L84.300317,25.98894 C84.319617,25.96404 84.331717,25.93134 84.337617,25.90034 L84.925027,22.51107 C84.931027,22.47987 84.929027,22.44367 84.920027,22.41317 L84.355927,20.57168 L83.787157,18.72552 L83.223057,16.87937 C83.212457,16.83987 83.189157,16.80317 83.157757,16.77681 C83.153757,16.77181 83.148757,16.76681 83.143757,16.76281 C83.122257,16.74901 83.098757,16.74361 83.073857,16.73951 C82.999057,16.72711 82.917887,16.75641 82.873397,16.81881 L81.717217,18.3666 L80.565677,19.91437 L79.409497,21.4575 C79.391297,21.4835 79.381197,21.5147 79.376897,21.5461 L78.784827,24.94004 C78.780827,24.97014 78.784977,24.99964 78.793827,25.02864 L79.353267,26.87946 L79.922037,28.72561 L80.225067,29.70929 L79.493127,33.94705 C78.541507,29.08416 76.584317,24.45771 73.735557,20.36664 L70.961667,12.8142 L71.078217,11.83517 L71.301997,9.91909 L71.525767,8.00301 C71.529767,7.97181 71.526767,7.93951 71.516767,7.90981 L70.327957,4.67904 C70.317457,4.64904 70.299657,4.62164 70.276657,4.59974 L68.864067,3.28505 L67.451477,1.97037 L66.038897,0.65568 C66.009997,0.62668 65.971997,0.60688 65.931667,0.59978 C65.925667,0.59778 65.919267,0.59678 65.913067,0.59478 C65.811087,0.58978 65.713107,0.67498 65.703277,0.77659 L65.479507,2.69268 L65.255727,4.60876 L65.027287,6.52484 C65.024287,6.55644 65.029287,6.58864 65.041287,6.61804 L66.225437,9.85347 C66.236637,9.88177 66.254337,9.90747 66.276737,9.92807 L67.689327,11.24742 L69.101907,12.5621 L69.857157,13.26607 L71.787227,18.52481 L71.498177,18.76257 L61.866487,10.72994 L61.726627,10.4036 L60.962057,8.63204 L60.197487,6.86048 L57.554137,4.65534 L55.675357,4.22178 L53.791907,3.78821 L53.451577,3.70891 L53.400277,3.66691 L53.376977,3.69491 L51.913107,3.35458 L52.505177,4.7392 L52.444577,4.8138 L52.593757,4.93501 L52.673057,5.12615 L53.437627,6.90238 L54.202187,8.67394 L56.845547,10.87906 L58.728997,11.31263 L60.607777,11.7462 L60.812907,11.7928 L70.561157,19.92333 C71.712487,21.3666 72.738387,22.89176 73.628757,24.48743 L65.908477,20.91633 L65.805917,20.7858 L64.612437,19.27065 L63.446937,17.79279 L60.411977,16.38487 L58.528527,16.45477 L56.598457,16.52007 L55.064657,16.57597 L56.015707,17.77877 L57.213847,19.29392 L58.374687,20.77177 L61.414307,22.1797 L63.297757,22.1098 L65.223167,22.0445 L65.493557,22.0355 L74.528517,26.21731 C76.718557,30.74231 77.875837,35.73471 77.875837,40.82802 C77.875837,40.98522 77.872837,41.14222 77.870837,41.29892 L72.980397,34.36183 L72.957097,34.19866 L72.677377,32.28724 L72.406977,30.4271 L70.486237,27.6905 L68.817237,26.80939 L67.115607,25.90029 L65.758967,25.18235 L65.978077,26.6975 L66.262457,28.60892 L66.528197,30.46906 L68.453597,33.21031 L70.122597,34.09143 L71.819567,34.99586 L72.061987,35.12174 L77.786927,43.25232 C77.403617,48.62122 75.760477,53.64112 73.148237,58.01222 L72.379007,49.54132 L72.439607,49.38742 L73.157547,47.59262 L73.852187,45.84432 L73.558487,42.51572 L72.556157,40.91662 L71.530517,39.28022 L70.719327,37.97954 L70.150557,39.40142 L69.437277,41.20102 L68.737977,42.94462 L69.041007,46.27792 L70.043337,47.87702 L71.059647,49.50872 L71.204167,49.74182 L72.099277,59.65322 C69.171807,63.96122 65.265657,67.54862 60.700677,70.10072 L64.271777,62.38512 L64.402307,62.28252 L65.917457,61.08912 L67.395317,59.92362 L68.803237,56.88862 L68.733337,55.00522 L68.668037,53.07512 L68.612137,51.54132 L67.409347,52.49232 L65.894187,53.69052 L64.416337,54.85132 L63.008417,57.89092 L63.078317,59.77442 L63.143617,61.69982 L63.152617,61.97022 L58.970797,71.00522 C55.566077,72.65512 51.838607,73.74742 47.907867,74.16132 L46.029077,72.83732 L50.826277,69.45742 L50.994117,69.43442 L52.900867,69.15932 L54.765677,68.88892 L57.502267,66.96352 L58.383387,65.29452 L59.292477,63.59292 L60.010427,62.23622 L58.490617,62.46002 L56.579187,62.73972 L54.719057,63.00552 L51.982457,64.93092 L51.101337,66.59992 L50.192247,68.29682 L50.066377,68.53932 L44.998777,72.11042 L39.931187,68.53932 L39.805307,68.29682 L38.896217,66.59992 L38.015097,64.93092 L35.278507,63.00552 L33.418367,62.73972 L31.506947,62.46002 L29.987127,62.23622 L30.705077,63.59292 L31.614167,65.29452 L32.495287,66.96352 L35.231887,68.88892 L37.096687,69.15932 L39.003447,69.43442 L39.171277,69.45742 L43.968477,72.83732 L42.089687,74.16132 C38.158957,73.74742 34.431477,72.65512 31.026757,71.00522 L26.844947,61.97022 L26.853947,61.69982 L26.919247,59.77442 L26.989147,57.89092 L25.581217,54.85132 L24.103367,53.69052 L22.588217,52.49232 L21.385417,51.54132 L21.329517,53.07512 L21.264217,55.00522 L21.194317,56.88862 L22.602237,59.92362 L24.080097,61.08912 L25.595247,62.28252 L25.725777,62.38512 L29.296877,70.10072 C24.731897,67.54862 20.825747,63.96122 17.898277,59.65322 L18.793387,49.74182 L18.937907,49.50872 L19.954227,47.87702 L20.956557,46.27792 L21.259587,42.94462 L20.560287,41.20102 L19.846997,39.40142 L19.278237,37.97954 L18.467047,39.28022 L17.441407,40.91662 L16.439077,42.51572 L16.145367,45.84432 L16.840007,47.59262 L17.557957,49.38742 L17.618557,49.54132 L16.849327,58.01222 C14.237087,53.64112 12.593947,48.62122 12.210637,43.25232 L17.935577,35.12174 L18.177997,34.99586 L19.874967,34.09143 L21.543967,33.21031 L23.469377,30.46906 L23.735107,28.60892 L24.019487,26.6975 L24.238607,25.18235 L22.881957,25.90029 L21.180327,26.80939 L19.511337,27.6905 L17.590587,30.4271 L17.320187,32.28724 L17.040467,34.19866 L17.017167,34.36183 L12.126727,41.29892 C12.124727,41.14222 12.121727,40.98522 12.121727,40.82802 C12.121727,35.73471 13.279007,30.74231 15.469047,26.21731 L24.504007,22.0355 L24.774397,22.0445 L26.699807,22.1098 L28.583257,22.1797 L31.622877,20.77177 L32.783717,19.29392 L33.981857,17.77877 L34.932907,16.57597 L33.399107,16.52007 L31.469037,16.45477 L29.585587,16.38487 L26.550627,17.79279 L25.385127,19.27065 L24.191647,20.7858 L24.089087,20.91633 L16.368807,24.48743 C17.259167,22.89176 18.285077,21.3666 19.436397,19.92333 L29.184647,11.7928 L29.389777,11.7462 L31.268567,11.31263 L33.152007,10.87906 L35.795367,8.67394 L36.559937,6.90238 L37.324507,5.12615 L37.403807,4.93501 L37.552987,4.8138 L37.492387,4.7392 L38.084457,3.35458 L36.620587,3.69491 L36.597287,3.66691 L36.545987,3.70891 L36.205667,3.78821 L34.322217,4.22178 L32.443427,4.65534 L29.800067,6.86047 L29.035507,8.63203 L28.270937,10.40359 L28.131077,10.72993 L18.499377,18.76256 L18.210337,18.5248 L20.140407,13.26606 L20.895647,12.5621 L22.308237,11.24741 L23.720817,9.92807 C23.743217,9.90747 23.760917,9.88177 23.772117,9.85347 L24.956257,6.61804 C24.968157,6.58864 24.973057,6.55644 24.970257,6.52484 L24.741817,4.60876 L24.518047,2.69268 L24.294267,0.7766 C24.284267,0.67498 24.186467,0.59006 24.084477,0.59478 L24.086397,0.59469 Z M45.000137,73.56432 L46.044427,74.30092 C45.697577,74.31792 45.349687,74.33192 45.000137,74.33792 C44.651177,74.32792 44.302117,74.31792 43.955847,74.30092 L45.000137,73.56432 Z" id="Shape"></path>
        </g>
    </g>
</svg>