<svg viewBox="0 0 38 36" fill="none" xmlns="http://www.w3.org/2000/svg"><g clip-path="url(#clip0)"><path d="M8.33 23.108a21.097 21.097 0 01-1.582-6.122.557.557 0 00-.633-.494c-.143.02-1.44.207-3.2.65-1.033.26-1.331.916-1.415 1.284-.193.829.273 1.87 1.191 2.645.52.44 2.101 1.336 4.701 2.664l.151.078a.548.548 0 00.644-.07.556.556 0 00.143-.635z" fill="#fff"/><path d="M34.88 15.313c-.64-.452-1.602-.664-2.453-.851-.237-.053-.466-.103-.664-.153C31.543 7.26 25.74 1.594 18.64 1.594c-7.237 0-13.124 5.887-13.127 13.125 0 6.288 2.622 12.262 7.014 15.978 3.686 3.12 7.642 3.962 10.848 3.962 3.747 0 6.464-1.152 6.512-1.175a.561.561 0 00.334-.505.563.563 0 00-.323-.513c-.115-.053-2.815-1.35-2.815-5.178 0-2.372.856-3.393 2.04-4.807l.286-.344a15.825 15.825 0 005.51-2.985c.785-.664 1.164-1.353 1.133-2.05-.027-.656-.424-1.259-1.171-1.79z" fill="#fff"/><path opacity=".15" d="M34.88 15.332c-.64-.452-1.602-.664-2.453-.851-.237-.053-.466-.104-.664-.154C31.543 7.28 25.74 1.613 18.64 1.613c-7.237 0-13.124 5.887-13.127 13.124 0 6.29 2.622 12.263 7.014 15.979 3.686 3.12 7.642 3.962 10.848 3.962 3.747 0 6.464-1.152 6.512-1.175a.561.561 0 00.334-.505.563.563 0 00-.323-.513c-.115-.053-2.815-1.35-2.815-5.178 0-2.372.856-3.393 2.04-4.808.094-.111.189-.226.286-.343a15.824 15.824 0 005.51-2.985c.785-.664 1.164-1.353 1.133-2.05-.027-.657-.424-1.26-1.171-1.79z" fill="url(#paint0_radial)"/><path d="M7.388 24.133a.845.845 0 01-.401-.101l-.156-.08c-2.76-1.41-4.375-2.328-4.94-2.805-1.024-.87-1.543-2.05-1.32-3.006.102-.44.453-1.223 1.66-1.526a34.567 34.567 0 013.353-.681.838.838 0 01.95.742 21.721 21.721 0 001.625 6.288.838.838 0 01-.771 1.17zm-2.413-6.4a37.15 37.15 0 00-2.335.508c-.18.046-.4.13-.435.28-.056.239.147.815.773 1.346.168.142.765.564 2.866 1.68a23.439 23.439 0 01-.869-3.813z" fill="#000"/><path d="M23.583 35.378c-3.153 0-7.448-.8-11.468-4.2-4.622-3.911-7.382-10.193-7.383-16.805v-.004C4.734 6.703 10.97.468 18.636.468c7.453 0 13.555 5.895 13.89 13.267.154.037.322.074.494.111.908.2 1.937.428 2.642.927.848.6 1.294 1.294 1.328 2.064.036.808-.391 1.595-1.269 2.34a16.69 16.69 0 01-5.744 3.13l-.25.3c-1.239 1.48-2.058 2.457-2.058 4.828 0 3.8 2.662 5.093 2.775 5.147a.834.834 0 01.49.768.84.84 0 01-.505.762c-.1.044-2.508 1.08-5.966 1.245-.282.013-.576.02-.88.02zM6.41 14.371c0 6.125 2.538 11.929 6.789 15.526 3.203 2.71 6.967 3.984 11.184 3.785a18.151 18.151 0 003.891-.614c-1.053-.989-2.284-2.76-2.284-5.632 0-2.98 1.136-4.336 2.451-5.907.132-.157.266-.317.404-.484a.846.846 0 01.412-.272 14.961 14.961 0 005.379-2.876c.442-.375.69-.735.678-.986-.01-.22-.23-.492-.62-.768-.429-.303-1.32-.5-2.036-.657-.466-.104-.905-.2-1.25-.328a.839.839 0 01-.547-.786c0-6.741-5.484-12.225-12.225-12.225-6.74 0-12.225 5.483-12.226 12.224z" fill="#000"/><path d="M11.006 15.992A1.196 1.196 0 019.812 14.8v-1.79c0-.655.537-1.193 1.194-1.193.656 0 1.193.537 1.193 1.194V14.8c0 .657-.538 1.193-1.193 1.193zm8.351 0a1.196 1.196 0 01-1.193-1.193v-1.79c0-.655.537-1.193 1.193-1.193s1.193.537 1.193 1.194v1.789c0 .657-.536 1.193-1.193 1.193z" fill="#000"/></g><defs><radialGradient id="paint0_radial" cx="0" cy="0" r="1" gradientUnits="userSpaceOnUse" gradientTransform="matrix(-18.13518 20.5017 -18.93297 -16.74753 29.92 8.586)"><stop stop-color="#fff" stop-opacity="0"/><stop offset=".823" stop-color="#fff" stop-opacity=".5"/><stop offset="1"/></radialGradient><clipPath id="clip0"><path fill="#fff" d="M0 0h37.513v35.918H0z"/></clipPath></defs></svg>