<svg viewBox="0 0 120 120" version="1.1" xmlns="http://www.w3.org/2000/svg" xmlns:xlink="http://www.w3.org/1999/xlink">
  <g fill="#1F8DED">
    <path d="M104,65.976 C104,68.185 102.209,69.976 100,69.976 C97.791,69.976 96,68.185 96,65.976 L96,30 C96,27.791 97.791,26 100,26 C102.209,26 104,27.791 104,30 L104,65.976 Z M102.604,91.013 C101.986,91.542 87.168,103.976 60,103.976 C32.832,103.976 18.014,91.542 17.396,91.013 C15.72,89.575 15.525,87.05 16.963,85.372 C18.397,83.698 20.916,83.5 22.594,84.931 C22.829,85.127 36.06,95.976 60,95.976 C84.24,95.976 97.268,85.049 97.396,84.939 C99.07,83.501 101.6,83.694 103.037,85.372 C104.475,87.05 104.281,89.575 102.604,91.013 Z M16,30 C16,27.791 17.791,26 20,26 C22.209,26 24,27.791 24,30 L24,65.976 C24,68.185 22.209,69.976 20,69.976 C17.791,69.976 16,68.185 16,65.976 L16,30 Z M36,22 C36,19.791 37.791,18 40,18 C42.209,18 44,19.791 44,22 L44,75.438 C44,77.647 42.209,79.438 40,79.438 C37.791,79.438 36,77.647 36,75.438 L36,22 Z M56,19.976 C56,17.767 57.791,15.976 60,15.976 C62.209,15.976 64,17.767 64,19.976 L64,77.976 C64,80.185 62.209,81.976 60,81.976 C57.791,81.976 56,80.185 56,77.976 L56,19.976 Z M76,22 C76,19.791 77.791,18 80,18 C82.209,18 84,19.791 84,22 L84,75.438 C84,77.647 82.209,79.438 80,79.438 C77.791,79.438 76,77.647 76,75.438 L76,22 Z M105,0 L15,0 C6.715,0 0,6.716 0,15 L0,105 C0,113.284 6.716,120 15,120 L105,120 C113.284,120 120,113.284 120,105 L120,15 C120,6.716 113.284,0 105,0 L105,0 Z" />
  </g>
</svg>
