<svg width="31" height="40" viewBox="0 0 31 40" fill="none" xmlns="http://www.w3.org/2000/svg">
<g clip-path="url(#clip0)">
<path d="M15.4997 23.9731C11.5942 23.9731 8.41674 20.7623 8.41674 16.816C8.41674 16.3805 8.76595 16.0269 9.19694 16.0269C9.62794 16.0269 9.97785 16.3805 9.97785 16.816C9.97785 19.8928 12.4548 22.3957 15.4997 22.3957C18.5453 22.3957 21.0222 19.8928 21.0222 16.816C21.0222 16.3805 21.3714 16.0269 21.8023 16.0269C22.2333 16.0269 22.5833 16.3805 22.5833 16.816C22.5833 20.7623 19.4058 23.9731 15.4997 23.9731ZM13.3471 16.0269C13.9937 16.0269 14.5173 16.556 14.5173 17.2094C14.5173 17.8627 13.9937 18.3928 13.3471 18.3928C12.7005 18.3928 12.1759 17.8627 12.1759 17.2094C12.1759 16.556 12.7005 16.0269 13.3471 16.0269ZM17.653 16.0269C18.2996 16.0269 18.8241 16.556 18.8241 17.2094C18.8241 17.8627 18.2996 18.3928 17.653 18.3928C17.0063 18.3928 16.4818 17.8627 16.4818 17.2094C16.4818 16.556 17.0063 16.0269 17.653 16.0269ZM24.4249 12.3017H20.3739L22.6825 1.57629C22.9433 0.364765 21.5334 -0.489491 20.5987 0.313656L2.32423 16.0163C-2.32658 20.0125 0.47017 27.6983 6.57515 27.6983H10.6262L8.3175 38.4237C8.05673 39.6352 9.4667 40.4895 10.4014 39.6863L28.6758 23.9837C33.3266 19.9875 30.5298 12.3017 24.4249 12.3017Z" fill="currentColor"/>
</g>
<defs>
<clipPath id="clip0">
<rect width="31" height="40" fill="currentColor"/>
</clipPath>
</defs>
</svg>
